<svg width="24" height="24" viewBox="0 0 24 24" fill="none" xmlns="http://www.w3.org/2000/svg">
<rect width="24" height="24" rx="12" fill="#F1B569"/>
<path d="M5.17575 7.02973C5.09721 6.89831 5.1919 6.73525 5.34695 6.73492L8.36673 6.72852C8.43983 6.72836 8.50792 6.7666 8.54492 6.82857L14.1739 16.2579C14.2107 16.3196 14.2111 16.3953 14.1748 16.4562L12.6685 18.9843C12.591 19.1144 12.397 19.1124 12.3182 18.9807L5.17575 7.02973Z" fill="#282A36"/>
<path d="M16.4821 6.82831C16.5191 6.76647 16.5869 6.72825 16.6599 6.72825L19.6522 6.72825C19.8074 6.72825 19.9025 6.89147 19.8238 7.02306L17.0207 11.7133C16.9389 11.8501 16.735 11.8455 16.6641 11.7052L15.2931 8.99481C15.2632 8.93579 15.2659 8.86568 15.3003 8.80809L16.4821 6.82831Z" fill="#282A36"/>
</svg>
