<svg width="24" height="24" viewBox="0 0 24 24" fill="none" xmlns="http://www.w3.org/2000/svg">
<path d="M2.17277 4.31531C2.09588 4.18214 2.19177 4.01565 2.34553 4.01531L6.53417 4.00611C6.60582 4.00596 6.67207 4.04413 6.70786 4.1062L14.2624 17.206C14.2981 17.2678 14.2981 17.3439 14.2625 17.4057L12.1731 21.0359C12.0962 21.1694 11.9036 21.1696 11.8265 21.0361L2.17277 4.31531Z"/>
<path d="M17.3423 4.10594C17.378 4.04401 17.4441 4.00585 17.5156 4.00585L21.6677 4.00585C21.8217 4.00585 21.9179 4.17252 21.8409 4.30585L17.972 11.0069C17.892 11.1456 17.6895 11.1386 17.6191 10.9947L15.7167 7.10142C15.6875 7.04167 15.6899 6.97132 15.7231 6.91371L17.3423 4.10594Z"/>
</svg>
