<svg width="22" height="22" viewBox="0 0 22 22" fill="none"
  xmlns="http://www.w3.org/2000/svg">
  <path d="M21.9883 22H17.7988V7C17.7988 6.70703 17.7402 6.43359 17.623 6.17969C17.5156 5.92578 17.3643 5.70605 17.1689 5.52051C16.9834 5.3252 16.7637 5.17383 16.5098 5.06641C16.2559 4.95898 15.9824 4.90527 15.6895 4.90527C15.3965 4.90527 15.123 4.95898 14.8691 5.06641C14.6152 5.17383 14.3906 5.3252 14.1953 5.52051C14.0098 5.70605 13.8633 5.92578 13.7559 6.17969C13.6484 6.43359 13.5947 6.70703 13.5947 7V22H9.39062V7C9.39062 6.70703 9.33691 6.43359 9.22949 6.17969C9.12207 5.92578 8.9707 5.70605 8.77539 5.52051C8.58984 5.3252 8.37012 5.17383 8.11621 5.06641C7.8623 4.95898 7.58887 4.90527 7.2959 4.90527C7.00293 4.90527 6.72949 4.95898 6.47559 5.06641C6.22168 5.17383 5.99707 5.3252 5.80176 5.52051C5.61621 5.70605 5.46973 5.92578 5.3623 6.17969C5.25488 6.43359 5.20117 6.70703 5.20117 7V22H0.99707V7C0.99707 6.13086 1.1582 5.31543 1.48047 4.55371C1.8125 3.78223 2.26172 3.11328 2.82812 2.54688C3.4043 1.9707 4.07324 1.52148 4.83496 1.19922C5.60645 0.867187 6.42676 0.701172 7.2959 0.701172C8.07715 0.701172 8.8291 0.842773 9.55176 1.12598C10.2744 1.39941 10.9238 1.7998 11.5 2.32715C12.0762 1.7998 12.7207 1.39941 13.4336 1.12598C14.1562 0.842773 14.9082 0.701172 15.6895 0.701172C16.5586 0.701172 17.374 0.867187 18.1357 1.19922C18.9072 1.52148 19.5762 1.9707 20.1426 2.54688C20.7188 3.11328 21.168 3.78223 21.4902 4.55371C21.8223 5.31543 21.9883 6.13086 21.9883 7V22Z" fill="inherit"/>
</svg>
